<mxfile host="app.diagrams.net" modified="2021-02-23T12:10:11.205Z" agent="5.0 (Windows NT 10.0; Win64; x64) AppleWebKit/537.36 (KHTML, like Gecko) Chrome/88.0.4324.182 Safari/537.36" etag="gjoejD5OmhbFrPK7hxIm" version="14.4.2" type="github">
  <diagram id="m9XSIq1BusQuQHjPRnI9" name="Page-1">
    <mxGraphModel dx="2272" dy="706" grid="1" gridSize="10" guides="1" tooltips="1" connect="1" arrows="1" fold="1" page="1" pageScale="1" pageWidth="850" pageHeight="1100" math="0" shadow="0">
      <root>
        <mxCell id="0" />
        <mxCell id="1" parent="0" />
        <mxCell id="cEs8dwnHzc24OYnDXXI1-16" value="面向服务的架构" style="swimlane;html=1;startSize=60;horizontal=1;containerType=tree;newEdgeStyle={&quot;edgeStyle&quot;:&quot;elbowEdgeStyle&quot;,&quot;startArrow&quot;:&quot;none&quot;,&quot;endArrow&quot;:&quot;none&quot;};fontSize=30;fontStyle=1" vertex="1" parent="1">
          <mxGeometry x="-60" y="90" width="960" height="710" as="geometry" />
        </mxCell>
        <mxCell id="cEs8dwnHzc24OYnDXXI1-22" style="edgeStyle=orthogonalEdgeStyle;rounded=0;orthogonalLoop=1;jettySize=auto;html=1;entryX=0.489;entryY=0.033;entryDx=0;entryDy=0;entryPerimeter=0;" edge="1" parent="cEs8dwnHzc24OYnDXXI1-16" source="cEs8dwnHzc24OYnDXXI1-1" target="cEs8dwnHzc24OYnDXXI1-19">
          <mxGeometry relative="1" as="geometry" />
        </mxCell>
        <mxCell id="cEs8dwnHzc24OYnDXXI1-1" value="内容管理系统" style="ellipse;whiteSpace=wrap;html=1;fontSize=20;" vertex="1" parent="cEs8dwnHzc24OYnDXXI1-16">
          <mxGeometry x="510" y="80" width="120" height="80" as="geometry" />
        </mxCell>
        <mxCell id="cEs8dwnHzc24OYnDXXI1-21" style="edgeStyle=orthogonalEdgeStyle;rounded=0;orthogonalLoop=1;jettySize=auto;html=1;entryX=0.113;entryY=-0.067;entryDx=0;entryDy=0;entryPerimeter=0;" edge="1" parent="cEs8dwnHzc24OYnDXXI1-16" source="cEs8dwnHzc24OYnDXXI1-2" target="cEs8dwnHzc24OYnDXXI1-19">
          <mxGeometry relative="1" as="geometry" />
        </mxCell>
        <mxCell id="cEs8dwnHzc24OYnDXXI1-2" value="电商系统" style="ellipse;whiteSpace=wrap;html=1;fontSize=20;" vertex="1" parent="cEs8dwnHzc24OYnDXXI1-16">
          <mxGeometry x="310" y="80" width="120" height="80" as="geometry" />
        </mxCell>
        <mxCell id="cEs8dwnHzc24OYnDXXI1-23" style="edgeStyle=orthogonalEdgeStyle;rounded=0;orthogonalLoop=1;jettySize=auto;html=1;entryX=0.887;entryY=0;entryDx=0;entryDy=0;entryPerimeter=0;" edge="1" parent="cEs8dwnHzc24OYnDXXI1-16" source="cEs8dwnHzc24OYnDXXI1-3" target="cEs8dwnHzc24OYnDXXI1-19">
          <mxGeometry relative="1" as="geometry" />
        </mxCell>
        <mxCell id="cEs8dwnHzc24OYnDXXI1-3" value="后台管理系统" style="ellipse;whiteSpace=wrap;html=1;fontSize=20;" vertex="1" parent="cEs8dwnHzc24OYnDXXI1-16">
          <mxGeometry x="720" y="80" width="120" height="80" as="geometry" />
        </mxCell>
        <mxCell id="cEs8dwnHzc24OYnDXXI1-19" value="ESB/DUBBO" style="rounded=0;whiteSpace=wrap;html=1;fillColor=#d5e8d4;strokeColor=#82b366;" vertex="1" parent="cEs8dwnHzc24OYnDXXI1-16">
          <mxGeometry x="310" y="210" width="530" height="30" as="geometry" />
        </mxCell>
        <mxCell id="cEs8dwnHzc24OYnDXXI1-68" value="" style="shape=flexArrow;endArrow=classic;html=1;fontSize=20;width=34;endSize=6.67;fillColor=#6a00ff;strokeColor=#3700CC;" edge="1" parent="cEs8dwnHzc24OYnDXXI1-16">
          <mxGeometry width="50" height="50" relative="1" as="geometry">
            <mxPoint x="569.5" y="250" as="sourcePoint" />
            <mxPoint x="569.5" y="330" as="targetPoint" />
          </mxGeometry>
        </mxCell>
        <mxCell id="cEs8dwnHzc24OYnDXXI1-67" value="" style="rounded=0;whiteSpace=wrap;html=1;fontSize=20;fillColor=#1ba1e2;strokeColor=#006EAF;fontColor=#ffffff;" vertex="1" parent="cEs8dwnHzc24OYnDXXI1-16">
          <mxGeometry x="200" y="340" width="740" height="250" as="geometry" />
        </mxCell>
        <mxCell id="cEs8dwnHzc24OYnDXXI1-33" value="用户服务" style="swimlane;html=1;startSize=30;horizontal=1;containerType=tree;newEdgeStyle={&quot;edgeStyle&quot;:&quot;elbowEdgeStyle&quot;,&quot;startArrow&quot;:&quot;none&quot;,&quot;endArrow&quot;:&quot;none&quot;};fontSize=20;" vertex="1" parent="cEs8dwnHzc24OYnDXXI1-16">
          <mxGeometry x="240" y="360" width="190" height="220" as="geometry" />
        </mxCell>
        <mxCell id="cEs8dwnHzc24OYnDXXI1-41" value="用户查询" style="rounded=0;whiteSpace=wrap;html=1;fillColor=#fff2cc;strokeColor=#d6b656;fontSize=20;" vertex="1" parent="cEs8dwnHzc24OYnDXXI1-33">
          <mxGeometry x="35" y="50" width="120" height="30" as="geometry" />
        </mxCell>
        <mxCell id="cEs8dwnHzc24OYnDXXI1-42" value="用户注册" style="rounded=0;whiteSpace=wrap;html=1;fillColor=#fff2cc;strokeColor=#d6b656;fontSize=20;" vertex="1" parent="cEs8dwnHzc24OYnDXXI1-33">
          <mxGeometry x="35" y="110" width="120" height="30" as="geometry" />
        </mxCell>
        <mxCell id="cEs8dwnHzc24OYnDXXI1-43" value="修改用户" style="rounded=0;whiteSpace=wrap;html=1;fillColor=#fff2cc;strokeColor=#d6b656;fontSize=20;" vertex="1" parent="cEs8dwnHzc24OYnDXXI1-33">
          <mxGeometry x="35" y="170" width="120" height="30" as="geometry" />
        </mxCell>
        <mxCell id="cEs8dwnHzc24OYnDXXI1-66" style="edgeStyle=orthogonalEdgeStyle;rounded=0;orthogonalLoop=1;jettySize=auto;html=1;entryX=0.5;entryY=0;entryDx=0;entryDy=0;fontSize=20;" edge="1" parent="cEs8dwnHzc24OYnDXXI1-16" target="cEs8dwnHzc24OYnDXXI1-62">
          <mxGeometry relative="1" as="geometry">
            <mxPoint x="805" y="590" as="sourcePoint" />
          </mxGeometry>
        </mxCell>
        <mxCell id="cEs8dwnHzc24OYnDXXI1-52" value="后台管理服务" style="swimlane;html=1;startSize=30;horizontal=1;containerType=tree;newEdgeStyle={&quot;edgeStyle&quot;:&quot;elbowEdgeStyle&quot;,&quot;startArrow&quot;:&quot;none&quot;,&quot;endArrow&quot;:&quot;none&quot;};fontSize=20;" vertex="1" parent="cEs8dwnHzc24OYnDXXI1-16">
          <mxGeometry x="710" y="360" width="190" height="220" as="geometry" />
        </mxCell>
        <mxCell id="cEs8dwnHzc24OYnDXXI1-53" value="查询" style="rounded=0;whiteSpace=wrap;html=1;fillColor=#fff2cc;strokeColor=#d6b656;fontSize=20;" vertex="1" parent="cEs8dwnHzc24OYnDXXI1-52">
          <mxGeometry x="35" y="50" width="120" height="30" as="geometry" />
        </mxCell>
        <mxCell id="cEs8dwnHzc24OYnDXXI1-54" value="修改" style="rounded=0;whiteSpace=wrap;html=1;fillColor=#fff2cc;strokeColor=#d6b656;fontSize=20;" vertex="1" parent="cEs8dwnHzc24OYnDXXI1-52">
          <mxGeometry x="35" y="110" width="120" height="30" as="geometry" />
        </mxCell>
        <mxCell id="cEs8dwnHzc24OYnDXXI1-55" value="删除" style="rounded=0;whiteSpace=wrap;html=1;fillColor=#fff2cc;strokeColor=#d6b656;fontSize=20;" vertex="1" parent="cEs8dwnHzc24OYnDXXI1-52">
          <mxGeometry x="35" y="170" width="120" height="30" as="geometry" />
        </mxCell>
        <mxCell id="cEs8dwnHzc24OYnDXXI1-65" style="edgeStyle=orthogonalEdgeStyle;rounded=0;orthogonalLoop=1;jettySize=auto;html=1;fontSize=20;" edge="1" parent="cEs8dwnHzc24OYnDXXI1-16" target="cEs8dwnHzc24OYnDXXI1-61">
          <mxGeometry relative="1" as="geometry">
            <mxPoint x="570" y="590" as="sourcePoint" />
          </mxGeometry>
        </mxCell>
        <mxCell id="cEs8dwnHzc24OYnDXXI1-56" value="订单服务" style="swimlane;html=1;startSize=30;horizontal=1;containerType=tree;newEdgeStyle={&quot;edgeStyle&quot;:&quot;elbowEdgeStyle&quot;,&quot;startArrow&quot;:&quot;none&quot;,&quot;endArrow&quot;:&quot;none&quot;};fontSize=20;" vertex="1" parent="cEs8dwnHzc24OYnDXXI1-16">
          <mxGeometry x="475" y="360" width="190" height="220" as="geometry" />
        </mxCell>
        <mxCell id="cEs8dwnHzc24OYnDXXI1-57" value="订单查询" style="rounded=0;whiteSpace=wrap;html=1;fillColor=#fff2cc;strokeColor=#d6b656;fontSize=20;" vertex="1" parent="cEs8dwnHzc24OYnDXXI1-56">
          <mxGeometry x="35" y="50" width="120" height="30" as="geometry" />
        </mxCell>
        <mxCell id="cEs8dwnHzc24OYnDXXI1-58" value="生成订单" style="rounded=0;whiteSpace=wrap;html=1;fillColor=#fff2cc;strokeColor=#d6b656;fontSize=20;" vertex="1" parent="cEs8dwnHzc24OYnDXXI1-56">
          <mxGeometry x="35" y="110" width="120" height="30" as="geometry" />
        </mxCell>
        <mxCell id="cEs8dwnHzc24OYnDXXI1-59" value="删除订单" style="rounded=0;whiteSpace=wrap;html=1;fillColor=#fff2cc;strokeColor=#d6b656;fontSize=20;" vertex="1" parent="cEs8dwnHzc24OYnDXXI1-56">
          <mxGeometry x="35" y="170" width="120" height="30" as="geometry" />
        </mxCell>
        <mxCell id="cEs8dwnHzc24OYnDXXI1-60" value="电商DB" style="shape=datastore;whiteSpace=wrap;html=1;fontSize=20;fillColor=#f8cecc;strokeColor=#b85450;" vertex="1" parent="cEs8dwnHzc24OYnDXXI1-16">
          <mxGeometry x="250" y="650" width="170" height="60" as="geometry" />
        </mxCell>
        <mxCell id="cEs8dwnHzc24OYnDXXI1-61" value="订单DB" style="shape=datastore;whiteSpace=wrap;html=1;fontSize=20;fillColor=#f8cecc;strokeColor=#b85450;" vertex="1" parent="cEs8dwnHzc24OYnDXXI1-16">
          <mxGeometry x="485" y="650" width="170" height="60" as="geometry" />
        </mxCell>
        <mxCell id="cEs8dwnHzc24OYnDXXI1-62" value="后台DB" style="shape=datastore;whiteSpace=wrap;html=1;fontSize=20;fillColor=#f8cecc;strokeColor=#b85450;" vertex="1" parent="cEs8dwnHzc24OYnDXXI1-16">
          <mxGeometry x="720" y="650" width="170" height="60" as="geometry" />
        </mxCell>
        <mxCell id="cEs8dwnHzc24OYnDXXI1-64" style="edgeStyle=orthogonalEdgeStyle;rounded=0;orthogonalLoop=1;jettySize=auto;html=1;entryX=0.5;entryY=0;entryDx=0;entryDy=0;fontSize=20;" edge="1" parent="cEs8dwnHzc24OYnDXXI1-16" target="cEs8dwnHzc24OYnDXXI1-60">
          <mxGeometry relative="1" as="geometry">
            <mxPoint x="335" y="590" as="sourcePoint" />
          </mxGeometry>
        </mxCell>
        <mxCell id="cEs8dwnHzc24OYnDXXI1-18" value="&lt;font style=&quot;font-size: 20px;&quot;&gt;展示层/业务功能&lt;/font&gt;" style="rounded=0;whiteSpace=wrap;html=1;fontSize=20;fontStyle=1;strokeColor=none;" vertex="1" parent="cEs8dwnHzc24OYnDXXI1-16">
          <mxGeometry x="20" y="180" width="160" height="60" as="geometry" />
        </mxCell>
        <mxCell id="cEs8dwnHzc24OYnDXXI1-17" value="&lt;font style=&quot;font-size: 20px&quot;&gt;服务层&lt;/font&gt;" style="rounded=0;whiteSpace=wrap;html=1;fontSize=20;fontStyle=1;strokeColor=none;" vertex="1" parent="cEs8dwnHzc24OYnDXXI1-16">
          <mxGeometry x="20" y="440" width="160" height="60" as="geometry" />
        </mxCell>
      </root>
    </mxGraphModel>
  </diagram>
</mxfile>
